# xmcd
#
# Track frame offsets:
#	150
#	13839
#	27103
#	46235
#	62756
#	81478
#	97574
#	114471
#	133583
#	151052
#
# Disc length: 2374 seconds
#
# Revision: 1
# Processed by: cddbd v1.5.2PL0 Copyright (c) Steve Scherf et al.
# Submitted via: audiograbber 1.83.01
#
DISCID=7009440a
DTITLE=Pokey LaFarge - Marmalade
DYEAR=2007
DGENRE=Ragtime
TTITLE0=Sweet Seventeen
TTITLE1=Ain't Coming Back No More
TTITLE2=Sad Girl
TTITLE3=You Can't Be Satisfied
TTITLE4=Josephine
TTITLE5=Fake in Heart
TTITLE6=Raindrops
TTITLE7=Home Away From Home
TTITLE8=Going Back (Baby to Loving You)
TTITLE9=Don't Come Here
EXTD=Produced by Pokey LaFarge and Nick Africano.\n\nwww.myspace.com/pokeylafar
EXTD=ge
EXTT0=
EXTT1=
EXTT2=
EXTT3=
EXTT4=
EXTT5=
EXTT6=
EXTT7=
EXTT8=
EXTT9=
PLAYORDER=
